# xmcd
#
# Track frame offsets: 
#        150
#        28074
#        60086
#        87392
#        112576
#        138639
#        166874
#        184346
#
# Disc length: 2809 seconds
#
# Revision: 0
# Processed by: cddbd v1.5.2PL0 Copyright (c) Steve Scherf et al.
# Submitted via: ExactAudioCopy v0.99pb5
#
DISCID=5e0af708
DTITLE=East Affair - Veselo Muziko
DYEAR=2010
DGENRE=Crossover
TTITLE0=Mariachi
TTITLE1=Funky Funky
TTITLE2=Hanappier
TTITLE3=Sunday Morning Television
TTITLE4=Masala
TTITLE5=Côte De Mozambique
TTITLE6=Gambora
TTITLE7=Veselo Muziko
EXTD=
EXTT0=
EXTT1=
EXTT2=
EXTT3=
EXTT4=
EXTT5=
EXTT6=
EXTT7=
PLAYORDER=
